# xmcd CD database file
#
# Track frame offsets:
#	150
#	21855
#	38482
#	61837
#	87246
#	113326
#	138879
#	152998
#	167427
#	182054
#	205884
#
# Disc length: 2931 seconds
#
# Revision: 0
# Processed by: cddbd v1.5.2PL0 Copyright (c) Steve Scherf et al.
# Submitted via: CDex 1.51
#
DISCID=7f0b710b
DTITLE=Jo -Yu Chen - Stranger
DYEAR=2014
DGENRE=Jazz
TTITLE0=Mon cher
TTITLE1=Wolfman
TTITLE2=Castle
TTITLE3=Fragments
TTITLE4=Stranger
TTITLE5=The Pirate
TTITLE6=Interlude
TTITLE7=Song for Ryder
TTITLE8=Happy New Year
TTITLE9=Art Of Darkness
TTITLE10=Foliage at Night (dedicated to Kodaiji Temple, Kyoto)
EXTD=YEAR: 2014
EXTT0=
EXTT1=
EXTT2=
EXTT3=
EXTT4=
EXTT5=
EXTT6=
EXTT7=
EXTT8=
EXTT9=
EXTT10=
PLAYORDER=
